<?xml version="1.0" encoding="UTF-8" standalone="no"?>
<svg
   xmlns:dc="http://purl.org/dc/elements/1.1/"
   xmlns:cc="http://creativecommons.org/ns#"
   xmlns:rdf="http://www.w3.org/1999/02/22-rdf-syntax-ns#"
   xmlns:svg="http://www.w3.org/2000/svg"
   xmlns="http://www.w3.org/2000/svg"
   xmlns:sodipodi="http://sodipodi.sourceforge.net/DTD/sodipodi-0.dtd"
   xmlns:inkscape="http://www.inkscape.org/namespaces/inkscape"
   width="328.601"
   height="314"
   viewBox="0 0 328.601 314"
   version="1.1"
   id="svg46"
   sodipodi:docname="illustration-paiement-sans-contact-325X310.svg"
   inkscape:version="0.92.5 (2060ec1f9f, 2020-04-08)">
  <metadata
     id="metadata52">
    <rdf:RDF>
      <cc:Work
         rdf:about="">
        <dc:format>image/svg+xml</dc:format>
        <dc:type
           rdf:resource="http://purl.org/dc/dcmitype/StillImage" />
        <dc:title></dc:title>
      </cc:Work>
    </rdf:RDF>
  </metadata>
  <defs
     id="defs50" />
  <sodipodi:namedview
     pagecolor="#b3aa99"
     bordercolor="#666666"
     borderopacity="1"
     objecttolerance="10"
     gridtolerance="10"
     guidetolerance="10"
     inkscape:pageopacity="0"
     inkscape:pageshadow="2"
     inkscape:window-width="1920"
     inkscape:window-height="1024"
     id="namedview48"
     showgrid="false"
     inkscape:zoom="0.75159236"
     inkscape:cx="-10.661358"
     inkscape:cy="157"
     inkscape:window-x="0"
     inkscape:window-y="28"
     inkscape:window-maximized="1"
     inkscape:current-layer="svg46" />
  <rect
     style="opacity:1;vector-effect:none;fill:#b3aa99;fill-opacity:1;stroke:#c8be52;stroke-width:1;stroke-linecap:butt;stroke-linejoin:round;stroke-miterlimit:4;stroke-dasharray:none;stroke-dashoffset:0;stroke-opacity:1"
     id="rect862"
     width="415.11868"
     height="377.86441"
     x="-38.584747"
     y="-29.271187" />
  <g
     id="Groupe_49"
     data-name="Groupe 49"
     transform="matrix(0.46214177,0,0,0.46214177,-278.73575,-127.21719)">
    <path
       id="Tracé_34"
       data-name="Tracé 34"
       d="M 0,16.973 8.5,8.486 0,0"
       transform="rotate(-90,789.919,-144.667)"
       inkscape:connector-curvature="0"
       style="fill:none;stroke:#282828;stroke-width:4;stroke-linecap:round;stroke-linejoin:round" />
    <line
       id="Ligne_2"
       data-name="Ligne 2"
       x2="157.674"
       transform="translate(785.307,660)"
       x1="0"
       y1="0"
       y2="0"
       style="fill:none;stroke:#282828;stroke-width:4;stroke-linecap:round;stroke-linejoin:round" />
    <g
       id="Groupe_17"
       data-name="Groupe 17"
       transform="translate(868.65,460)">
      <path
         id="Tracé_40"
         data-name="Tracé 40"
         d="M 485.007,320.746 V 459.628 H 619.314 V 320.746"
         transform="translate(-477.234,-149.628)"
         stroke-miterlimit="10"
         inkscape:connector-curvature="0"
         style="fill:none;stroke:#282828;stroke-width:4;stroke-miterlimit:10" />
      <rect
         id="Rectangle_58"
         data-name="Rectangle 58"
         width="148.44501"
         height="14.138"
         rx="1.714"
         transform="translate(0,155.513)"
         stroke-miterlimit="10"
         x="0"
         y="0"
         style="fill:none;stroke:#282828;stroke-width:4;stroke-miterlimit:10" />
      <path
         id="Rectangle_59"
         data-name="Rectangle 59"
         d="m 3.658,0 h 126.991 a 3.658,3.658 0 0 1 3.658,3.658 V 155.513 H 0 V 3.658 A 3.658,3.658 0 0 1 3.658,0 Z"
         transform="translate(7.069)"
         stroke-miterlimit="10"
         inkscape:connector-curvature="0"
         style="fill:none;stroke:#282828;stroke-width:4;stroke-miterlimit:10" />
      <rect
         id="Rectangle_60"
         data-name="Rectangle 60"
         width="120.169"
         height="120.169"
         rx="1.961"
         transform="translate(14.138,18.275)"
         stroke-miterlimit="10"
         x="0"
         y="0"
         style="fill:none;stroke:#282828;stroke-width:4;stroke-miterlimit:10" />
      <circle
         id="Ellipse_24"
         data-name="Ellipse 24"
         cx="4.132"
         cy="4.132"
         r="4.132"
         transform="translate(38.255,122.826)"
         stroke-miterlimit="10"
         style="fill:none;stroke:#282828;stroke-width:4;stroke-miterlimit:10" />
      <line
         id="Ligne_13"
         data-name="Ligne 13"
         x1="0.234"
         y1="24.013"
         transform="translate(42.179,131.5)"
         stroke-miterlimit="10"
         x2="0"
         y2="0"
         style="fill:none;stroke:#282828;stroke-width:4;stroke-miterlimit:10" />
      <circle
         id="Ellipse_25"
         data-name="Ellipse 25"
         cx="4.132"
         cy="4.132"
         r="4.132"
         transform="translate(104.275,122.841)"
         stroke-miterlimit="10"
         style="fill:none;stroke:#282828;stroke-width:4;stroke-miterlimit:10" />
      <line
         id="Ligne_14"
         data-name="Ligne 14"
         x1="0.255"
         y1="24.028"
         transform="translate(108.179,131.5)"
         stroke-miterlimit="10"
         x2="0"
         y2="0"
         style="fill:none;stroke:#282828;stroke-width:4;stroke-miterlimit:10" />
    </g>
    <g
       id="Groupe_18"
       data-name="Groupe 18"
       transform="translate(895.329,689.424)">
      <path
         id="Tracé_41"
         data-name="Tracé 41"
         d="m 428.419,310.386 0.731,2.424 h 4.69 L 428.6,296.8 h -5.7 l -5.123,16.013 h 4.458 l 0.733,-2.424 z m -2.837,-8.809 h 0.229 l 1.464,4.919 h -3.157 z"
         transform="translate(-417.549,-296.499)"
         inkscape:connector-curvature="0"
         style="fill:#282828" />
      <path
         id="Tracé_42"
         data-name="Tracé 42"
         d="m 438.065,312.81 -3.248,-5.787 a 5.482,5.482 0 0 0 2.608,-4.69 5.555,5.555 0 0 0 -5.881,-5.536 h -6.633 v 16.013 h 4.389 v -4.872 h 1.555 l 2.379,4.872 z m -6.978,-8.577 H 429.3 V 300.5 h 1.784 a 1.741,1.741 0 0 1 1.877,1.831 1.784,1.784 0 0 1 -1.874,1.902 z"
         transform="translate(-407.138,-296.499)"
         inkscape:connector-curvature="0"
         style="fill:#282828" />
      <path
         id="Tracé_43"
         data-name="Tracé 43"
         d="m 447.509,306.764 h -4.781 a 3.994,3.994 0 1 1 -3.592,-5.856 3.277,3.277 0 0 1 3.386,2.357 h 4.783 c -0.527,-3.637 -3.523,-6.589 -8.169,-6.589 a 8.106,8.106 0 0 0 -8.508,8.3 c 0,4.736 3.408,8.3 8.508,8.3 4.599,0.008 7.847,-2.898 8.373,-6.512 z"
         transform="translate(-398.788,-296.676)"
         inkscape:connector-curvature="0"
         style="fill:#282828" />
      <path
         id="Tracé_44"
         data-name="Tracé 44"
         d="M 448.266,310.386 449,312.81 h 4.69 l -5.242,-16.01 h -5.7 l -5.125,16.013 h 4.461 l 0.733,-2.424 z m -2.837,-8.809 h 0.229 l 1.464,4.919 h -3.157 z"
         transform="translate(-388.566,-296.499)"
         inkscape:connector-curvature="0"
         style="fill:#282828" />
      <path
         id="Tracé_45"
         data-name="Tracé 45"
         d="m 459.19,304.712 c 0,-4.668 -3.179,-7.915 -8.326,-7.915 h -6.107 v 16.013 h 6.107 c 5.147,0 8.326,-3.135 8.326,-8.098 z m -10.041,4.323 v -8.464 h 1.486 c 1.715,0 3.981,0.869 3.981,4.141 0,3.454 -2.288,4.323 -3.981,4.323 z"
         transform="translate(-378.153,-296.499)"
         inkscape:connector-curvature="0"
         style="fill:#282828" />
      <path
         id="Tracé_46"
         data-name="Tracé 46"
         d="m 455.851,309.081 v -2.448 h 5.238 v -3.706 h -5.238 V 300.5 h 6.2 v -3.7 h -10.592 v 16.01 h 10.82 v -3.729 z"
         transform="translate(-368.365,-296.499)"
         inkscape:connector-curvature="0"
         style="fill:#282828" />
      <path
         id="Tracé_47"
         data-name="Tracé 47"
         d="m 417.687,316.752 h 3.362 v -4.378 h 4.185 v -2.837 h -4.185 v -2.206 H 425.8 V 304.5 h -8.108 z"
         transform="translate(-417.687,-285.257)"
         inkscape:connector-curvature="0"
         style="fill:#282828" />
      <path
         id="Tracé_48"
         data-name="Tracé 48"
         d="m 428.083,304.4 a 6.361,6.361 0 1 0 6.584,6.358 6.34,6.34 0 0 0 -6.584,-6.358 z m 0,9.475 a 3.118,3.118 0 1 1 3.08,-3.117 2.994,2.994 0 0 1 -3.08,3.119 z"
         transform="translate(-412.146,-285.392)"
         inkscape:connector-curvature="0"
         style="fill:#282828" />
      <path
         id="Tracé_49"
         data-name="Tracé 49"
         d="m 437.06,308.732 a 4.253,4.253 0 0 0 -4.5,-4.237 h -5.078 v 12.258 h 3.361 v -3.73 h 1.191 l 1.821,3.73 h 3.7 l -2.487,-4.431 a 4.193,4.193 0 0 0 1.992,-3.59 z m -4.852,1.454 h -1.366 v -2.854 h 1.366 a 1.331,1.331 0 0 1 1.437,1.4 1.365,1.365 0 0 1 -1.437,1.454 z"
         transform="translate(-403.384,-285.257)"
         inkscape:connector-curvature="0"
         style="fill:#282828" />
      <path
         id="Tracé_50"
         data-name="Tracé 50"
         d="m 440.3,310.093 v 2.714 h 2.625 a 3.178,3.178 0 1 1 -2.625,-5.164 2.6,2.6 0 0 1 2.52,1.489 h 3.7 a 5.967,5.967 0 0 0 -6.22,-4.732 6.359,6.359 0 1 0 0,12.713 c 4.114,0 6.584,-2.766 6.355,-7.022 z"
         transform="translate(-394.206,-285.392)"
         inkscape:connector-curvature="0"
         style="fill:#282828" />
      <path
         id="Tracé_51"
         data-name="Tracé 51"
         d="m 446.11,304.4 a 6.361,6.361 0 1 0 6.584,6.358 6.339,6.339 0 0 0 -6.584,-6.358 z m 0,9.475 a 3.118,3.118 0 1 1 3.081,-3.117 2.993,2.993 0 0 1 -3.081,3.119 z"
         transform="translate(-385.817,-285.392)"
         inkscape:connector-curvature="0"
         style="fill:#282828" />
      <path
         id="Tracé_52"
         data-name="Tracé 52"
         d="m 451.967,304.4 a 6.361,6.361 0 1 0 6.584,6.358 6.34,6.34 0 0 0 -6.584,-6.358 z m 0,9.475 a 3.118,3.118 0 1 1 3.08,-3.117 2.994,2.994 0 0 1 -3.08,3.119 z"
         transform="translate(-377.264,-285.392)"
         inkscape:connector-curvature="0"
         style="fill:#282828" />
      <path
         id="Tracé_53"
         data-name="Tracé 53"
         d="m 456.041,304.5 h -4.675 v 12.258 h 4.675 c 3.939,0 6.373,-2.4 6.373,-6.2 0,-3.575 -2.434,-6.058 -6.373,-6.058 z m -0.175,9.367 h -1.139 v -6.478 h 1.139 a 2.869,2.869 0 0 1 3.046,3.169 c 0,2.642 -1.749,3.304 -3.046,3.304 z"
         transform="translate(-368.501,-285.257)"
         inkscape:connector-curvature="0"
         style="fill:#282828" />
    </g>
    <g
       id="Groupe_20"
       data-name="Groupe 20"
       transform="translate(701.095,501.504)">
      <rect
         id="Rectangle_62"
         data-name="Rectangle 62"
         width="63.974998"
         height="119.67"
         rx="2.142"
         stroke-miterlimit="10"
         x="0"
         y="0"
         style="fill:none;stroke:#ffd633;stroke-width:4;stroke-miterlimit:10" />
      <rect
         id="Rectangle_63"
         data-name="Rectangle 63"
         width="47.792999"
         height="104.694"
         rx="0.65100002"
         transform="translate(8.048,7.323)"
         stroke-miterlimit="10"
         x="0"
         y="0"
         style="fill:none;stroke:#ffd633;stroke-width:4;stroke-miterlimit:10" />
      <circle
         id="Ellipse_26"
         data-name="Ellipse 26"
         cx="3.5050001"
         cy="3.5050001"
         r="3.5050001"
         transform="translate(29.607,94.094)"
         stroke-miterlimit="10"
         style="fill:none;stroke:#ffd633;stroke-width:4;stroke-miterlimit:10" />
    </g>
    <g
       id="Groupe_19"
       data-name="Groupe 19"
       transform="translate(692.095,634.189)">
      <rect
         id="Rectangle_64"
         data-name="Rectangle 64"
         width="83.415001"
         height="56.674"
         rx="1.645"
         transform="translate(0.399)"
         stroke-miterlimit="10"
         x="0"
         y="0"
         style="fill:none;stroke:#ffd633;stroke-width:4;stroke-miterlimit:10" />
      <rect
         id="Rectangle_65"
         data-name="Rectangle 65"
         width="18.358999"
         height="15.166"
         rx="0.90200001"
         transform="translate(11.974,9.579)"
         stroke-miterlimit="10"
         x="0"
         y="0"
         style="fill:none;stroke:#ffd633;stroke-width:4;stroke-miterlimit:10" />
      <line
         id="Ligne_15"
         data-name="Ligne 15"
         x2="83.814003"
         transform="translate(0,37.916)"
         stroke-miterlimit="10"
         x1="0"
         y1="0"
         y2="0"
         style="fill:none;stroke:#ffd633;stroke-width:4;stroke-miterlimit:10" />
      <line
         id="Ligne_16"
         data-name="Ligne 16"
         x1="83.814003"
         transform="translate(0.399,45.499)"
         stroke-miterlimit="10"
         y1="0"
         x2="0"
         y2="0"
         style="fill:none;stroke:#ffd633;stroke-width:4;stroke-miterlimit:10" />
    </g>
    <line
       id="Ligne_17"
       data-name="Ligne 17"
       y2="85.571999"
       transform="translate(829.217,573.5)"
       x1="0"
       y1="0"
       x2="0"
       style="fill:none;stroke:#282828;stroke-width:4;stroke-linecap:round" />
    <line
       id="Ligne_18"
       data-name="Ligne 18"
       x2="43.909"
       transform="translate(785.307,573)"
       x1="0"
       y1="0"
       y2="0"
       style="fill:none;stroke:#282828;stroke-width:4;stroke-linecap:round;stroke-linejoin:round" />
    <rect
       id="Rectangle_61"
       data-name="Rectangle 61"
       width="31.924"
       height="21.051001"
       rx="2.0079999"
       transform="translate(927.499,602.123)"
       stroke-miterlimit="10"
       x="0"
       y="0"
       style="fill:none;stroke:#ffd633;stroke-width:4;stroke-miterlimit:10" />
    <line
       id="Ligne_19"
       data-name="Ligne 19"
       y2="21.572001"
       transform="translate(942.982,637.5)"
       x1="0"
       y1="0"
       x2="0"
       style="fill:none;stroke:#282828;stroke-width:4;stroke-linecap:round" />
    <g
       id="Rectangle_69"
       data-name="Rectangle 69"
       transform="translate(932.467,608)"
       style="fill:none;stroke:#282828;stroke-width:4">
      <path
         d="m 5,0 h 12 a 5,5 0 0 1 5,5 V 9 H 0 V 5 A 5,5 0 0 1 5,0 Z"
         id="path40"
         inkscape:connector-curvature="0"
         style="stroke:none" />
      <path
         d="m 5,2 h 12 a 3,3 0 0 1 3,3 V 7 H 2 V 5 A 3,3 0 0 1 5,2 Z"
         id="path42"
         inkscape:connector-curvature="0"
         style="fill:none" />
    </g>
  </g>
</svg>
