<svg xmlns="http://www.w3.org/2000/svg" width="328.601" height="314" viewBox="0 0 328.601 314">
  <g id="Groupe_49" data-name="Groupe 49" transform="translate(-690.494 -458)">
    <path id="Tracé_34" data-name="Tracé 34" d="M0,16.973,8.5,8.486,0,0" transform="translate(934.586 645.252) rotate(-90)" fill="none" stroke="#282828" stroke-linecap="round" stroke-linejoin="round" stroke-width="4"/>
    <line id="Ligne_2" data-name="Ligne 2" x2="157.674" transform="translate(785.307 660)" fill="none" stroke="#282828" stroke-linecap="round" stroke-linejoin="round" stroke-width="4"/>
    <g id="Groupe_17" data-name="Groupe 17" transform="translate(868.65 460)">
      <path id="Tracé_40" data-name="Tracé 40" d="M485.007,320.746V459.628H619.314V320.746" transform="translate(-477.234 -149.628)" fill="none" stroke="#282828" stroke-miterlimit="10" stroke-width="4"/>
      <rect id="Rectangle_58" data-name="Rectangle 58" width="148.445" height="14.138" rx="1.714" transform="translate(0 155.513)" fill="none" stroke="#282828" stroke-miterlimit="10" stroke-width="4"/>
      <path id="Rectangle_59" data-name="Rectangle 59" d="M3.658,0H130.649a3.658,3.658,0,0,1,3.658,3.658V155.513a0,0,0,0,1,0,0H0a0,0,0,0,1,0,0V3.658A3.658,3.658,0,0,1,3.658,0Z" transform="translate(7.069)" fill="none" stroke="#282828" stroke-miterlimit="10" stroke-width="4"/>
      <rect id="Rectangle_60" data-name="Rectangle 60" width="120.169" height="120.169" rx="1.961" transform="translate(14.138 18.275)" fill="none" stroke="#282828" stroke-miterlimit="10" stroke-width="4"/>
      <circle id="Ellipse_24" data-name="Ellipse 24" cx="4.132" cy="4.132" r="4.132" transform="translate(38.255 122.826)" fill="none" stroke="#282828" stroke-miterlimit="10" stroke-width="4"/>
      <line id="Ligne_13" data-name="Ligne 13" x1="0.234" y1="24.013" transform="translate(42.179 131.5)" fill="none" stroke="#282828" stroke-miterlimit="10" stroke-width="4"/>
      <circle id="Ellipse_25" data-name="Ellipse 25" cx="4.132" cy="4.132" r="4.132" transform="translate(104.275 122.841)" fill="none" stroke="#282828" stroke-miterlimit="10" stroke-width="4"/>
      <line id="Ligne_14" data-name="Ligne 14" x1="0.255" y1="24.028" transform="translate(108.179 131.5)" fill="none" stroke="#282828" stroke-miterlimit="10" stroke-width="4"/>
    </g>
    <g id="Groupe_18" data-name="Groupe 18" transform="translate(895.329 689.424)">
      <path id="Tracé_41" data-name="Tracé 41" d="M428.419,310.386l.731,2.424h4.69L428.6,296.8h-5.7l-5.123,16.013h4.458l.733-2.424Zm-2.837-8.809h.229l1.464,4.919h-3.157Z" transform="translate(-417.549 -296.499)" fill="#282828"/>
      <path id="Tracé_42" data-name="Tracé 42" d="M438.065,312.81l-3.248-5.787a5.482,5.482,0,0,0,2.608-4.69,5.555,5.555,0,0,0-5.881-5.536h-6.633V312.81H429.3v-4.872h1.555l2.379,4.872Zm-6.978-8.577H429.3V300.5h1.784a1.741,1.741,0,0,1,1.877,1.831A1.784,1.784,0,0,1,431.087,304.233Z" transform="translate(-407.138 -296.499)" fill="#282828"/>
      <path id="Tracé_43" data-name="Tracé 43" d="M447.509,306.764h-4.781a3.994,3.994,0,1,1-3.592-5.856,3.277,3.277,0,0,1,3.386,2.357h4.783c-.527-3.637-3.523-6.589-8.169-6.589a8.106,8.106,0,0,0-8.508,8.3c0,4.736,3.408,8.3,8.508,8.3C443.735,313.284,446.983,310.378,447.509,306.764Z" transform="translate(-398.788 -296.676)" fill="#282828"/>
      <path id="Tracé_44" data-name="Tracé 44" d="M448.266,310.386,449,312.81h4.69L448.448,296.8h-5.7l-5.125,16.013h4.461l.733-2.424Zm-2.837-8.809h.229l1.464,4.919h-3.157Z" transform="translate(-388.566 -296.499)" fill="#282828"/>
      <path id="Tracé_45" data-name="Tracé 45" d="M459.19,304.712c0-4.668-3.179-7.915-8.326-7.915h-6.107V312.81h6.107C456.011,312.81,459.19,309.675,459.19,304.712Zm-10.041,4.323v-8.464h1.486c1.715,0,3.981.869,3.981,4.141,0,3.454-2.288,4.323-3.981,4.323Z" transform="translate(-378.153 -296.499)" fill="#282828"/>
      <path id="Tracé_46" data-name="Tracé 46" d="M455.851,309.081v-2.448h5.238v-3.706h-5.238V300.5h6.2V296.8H451.459V312.81h10.82v-3.729Z" transform="translate(-368.365 -296.499)" fill="#282828"/>
      <path id="Tracé_47" data-name="Tracé 47" d="M417.687,316.752h3.362v-4.378h4.185v-2.837h-4.185v-2.206H425.8V304.5h-8.108Z" transform="translate(-417.687 -285.257)" fill="#282828"/>
      <path id="Tracé_48" data-name="Tracé 48" d="M428.083,304.4a6.361,6.361,0,1,0,6.584,6.358A6.34,6.34,0,0,0,428.083,304.4Zm0,9.475a3.118,3.118,0,1,1,3.08-3.117A2.994,2.994,0,0,1,428.083,313.877Z" transform="translate(-412.146 -285.392)" fill="#282828"/>
      <path id="Tracé_49" data-name="Tracé 49" d="M437.06,308.732a4.253,4.253,0,0,0-4.5-4.237h-5.078v12.258h3.361v-3.73h1.191l1.821,3.73h3.7l-2.487-4.431A4.193,4.193,0,0,0,437.06,308.732Zm-4.852,1.454h-1.366v-2.854h1.366a1.331,1.331,0,0,1,1.437,1.4A1.365,1.365,0,0,1,432.208,310.186Z" transform="translate(-403.384 -285.257)" fill="#282828"/>
      <path id="Tracé_50" data-name="Tracé 50" d="M440.3,310.093v2.714h2.625a3.178,3.178,0,1,1-2.625-5.164,2.6,2.6,0,0,1,2.52,1.489h3.7A5.967,5.967,0,0,0,440.3,304.4a6.359,6.359,0,1,0,0,12.713c4.114,0,6.584-2.766,6.355-7.022Z" transform="translate(-394.206 -285.392)" fill="#282828"/>
      <path id="Tracé_51" data-name="Tracé 51" d="M446.11,304.4a6.361,6.361,0,1,0,6.584,6.358A6.339,6.339,0,0,0,446.11,304.4Zm0,9.475a3.118,3.118,0,1,1,3.081-3.117A2.993,2.993,0,0,1,446.11,313.877Z" transform="translate(-385.817 -285.392)" fill="#282828"/>
      <path id="Tracé_52" data-name="Tracé 52" d="M451.967,304.4a6.361,6.361,0,1,0,6.584,6.358A6.34,6.34,0,0,0,451.967,304.4Zm0,9.475a3.118,3.118,0,1,1,3.08-3.117A2.994,2.994,0,0,1,451.967,313.877Z" transform="translate(-377.264 -285.392)" fill="#282828"/>
      <path id="Tracé_53" data-name="Tracé 53" d="M456.041,304.5h-4.675v12.258h4.675c3.939,0,6.373-2.4,6.373-6.2C462.414,306.983,459.98,304.5,456.041,304.5Zm-.175,9.367h-1.139v-6.478h1.139a2.869,2.869,0,0,1,3.046,3.169C458.912,313.2,457.163,313.862,455.866,313.862Z" transform="translate(-368.501 -285.257)" fill="#282828"/>
    </g>
    <g id="Groupe_20" data-name="Groupe 20" transform="translate(701.095 501.504)">
      <rect id="Rectangle_62" data-name="Rectangle 62" width="63.975" height="119.67" rx="2.142" fill="none" stroke="#ffd633" stroke-miterlimit="10" stroke-width="4"/>
      <rect id="Rectangle_63" data-name="Rectangle 63" width="47.793" height="104.694" rx="0.651" transform="translate(8.048 7.323)" fill="none" stroke="#ffd633" stroke-miterlimit="10" stroke-width="4"/>
      <circle id="Ellipse_26" data-name="Ellipse 26" cx="3.505" cy="3.505" r="3.505" transform="translate(29.607 94.094)" fill="none" stroke="#ffd633" stroke-miterlimit="10" stroke-width="4"/>
    </g>
    <g id="Groupe_19" data-name="Groupe 19" transform="translate(692.095 634.189)">
      <rect id="Rectangle_64" data-name="Rectangle 64" width="83.415" height="56.674" rx="1.645" transform="translate(0.399)" fill="none" stroke="#ffd633" stroke-miterlimit="10" stroke-width="4"/>
      <rect id="Rectangle_65" data-name="Rectangle 65" width="18.359" height="15.166" rx="0.902" transform="translate(11.974 9.579)" fill="none" stroke="#ffd633" stroke-miterlimit="10" stroke-width="4"/>
      <line id="Ligne_15" data-name="Ligne 15" x2="83.814" transform="translate(0 37.916)" fill="none" stroke="#ffd633" stroke-miterlimit="10" stroke-width="4"/>
      <line id="Ligne_16" data-name="Ligne 16" x1="83.814" transform="translate(0.399 45.499)" fill="none" stroke="#ffd633" stroke-miterlimit="10" stroke-width="4"/>
    </g>
    <line id="Ligne_17" data-name="Ligne 17" y2="85.572" transform="translate(829.217 573.5)" fill="none" stroke="#282828" stroke-linecap="round" stroke-width="4"/>
    <line id="Ligne_18" data-name="Ligne 18" x2="43.909" transform="translate(785.307 573)" fill="none" stroke="#282828" stroke-linecap="round" stroke-linejoin="round" stroke-width="4"/>
    <rect id="Rectangle_61" data-name="Rectangle 61" width="31.924" height="21.051" rx="2.008" transform="translate(927.499 602.123)" fill="none" stroke="#ffd633" stroke-miterlimit="10" stroke-width="4"/>
    <line id="Ligne_19" data-name="Ligne 19" y2="21.572" transform="translate(942.982 637.5)" fill="none" stroke="#282828" stroke-linecap="round" stroke-width="4"/>
    <g id="Rectangle_69" data-name="Rectangle 69" transform="translate(932.467 608)" fill="none" stroke="#282828" stroke-width="4">
      <path d="M5,0H17a5,5,0,0,1,5,5V9a0,0,0,0,1,0,0H0A0,0,0,0,1,0,9V5A5,5,0,0,1,5,0Z" stroke="none"/>
      <path d="M5,2H17a3,3,0,0,1,3,3V7a0,0,0,0,1,0,0H2A0,0,0,0,1,2,7V5A3,3,0,0,1,5,2Z" fill="none"/>
    </g>
  </g>
</svg>
