<svg xmlns="http://www.w3.org/2000/svg" width="85" height="85" viewBox="0 0 85 85">
  <g id="Groupe_40" data-name="Groupe 40" transform="translate(-663.484 -252.618)">
    <circle id="Ellipse_19" data-name="Ellipse 19" cx="40" cy="40" r="40" transform="translate(665.984 255.118)" fill="none" stroke="#b3aa99" stroke-linecap="round" stroke-linejoin="round" stroke-width="5"/>
    <g id="Groupe_41" data-name="Groupe 41" transform="translate(689.47 266.22)">
      <path id="Tracé_97" data-name="Tracé 97" d="M272.191,361.076V352.2a3.133,3.133,0,0,0-3.132-3.132H241.691a3.133,3.133,0,0,0-3.132,3.132v8.879" transform="translate(-238.559 -302.973)" fill="none" stroke="#5dc3e4" stroke-linecap="round" stroke-linejoin="round" stroke-width="5"/>
      <path id="Rectangle_78" data-name="Rectangle 78" d="M3.72,0H15.5a3.72,3.72,0,0,1,3.72,3.72V7.207a0,0,0,0,1,0,0H0a0,0,0,0,1,0,0V3.72A3.72,3.72,0,0,1,3.72,0Z" transform="translate(7.207 38.885)" fill="none" stroke="#5dc3e4" stroke-linecap="round" stroke-linejoin="round" stroke-width="5"/>
      <circle id="Ellipse_40" data-name="Ellipse 40" cx="1.201" cy="1.201" r="1.201" transform="translate(7.347 52.591)" fill="none" stroke="#5dc3e4" stroke-linecap="round" stroke-linejoin="round" stroke-width="5"/>
      <circle id="Ellipse_41" data-name="Ellipse 41" cx="1.201" cy="1.201" r="1.201" transform="translate(15.895 52.591)" fill="none" stroke="#5dc3e4" stroke-linecap="round" stroke-linejoin="round" stroke-width="5"/>
      <path id="Tracé_98" data-name="Tracé 98" d="M264.921,316.39a7.852,7.852,0,1,0-10.677,7.32v10.915h5.662V323.705A7.849,7.849,0,0,0,264.921,316.39Z" transform="translate(-240.185 -296.792)" fill="none" stroke="#5dc3e4" stroke-linecap="round" stroke-linejoin="round" stroke-width="5"/>
      <line id="Ligne_27" data-name="Ligne 27" y2="5.412" transform="translate(17.393)" fill="none" stroke="#5dc3e4" stroke-linecap="round" stroke-linejoin="round" stroke-width="5"/>
      <line id="Ligne_28" data-name="Ligne 28" x1="3.827" y2="3.827" transform="translate(29.186 4.986)" fill="none" stroke="#5dc3e4" stroke-linecap="round" stroke-linejoin="round" stroke-width="5"/>
      <line id="Ligne_29" data-name="Ligne 29" x2="3.827" y2="3.827" transform="translate(0.372 4.986)" fill="none" stroke="#5dc3e4" stroke-linecap="round" stroke-linejoin="round" stroke-width="5"/>
    </g>
  </g>
</svg>
