<svg id="Composant_3_1" data-name="Composant 3 – 1" xmlns="http://www.w3.org/2000/svg" width="260" height="305" viewBox="0 0 260 305">
  <path id="Tracé_16" data-name="Tracé 16" d="M150.522,80.945,122.3,137.485h8.668a8.673,8.673,0,0,1,8.666,8.681V155.1H148.3a21.684,21.684,0,0,1,21.666,21.7v34.472H187.3V176.8a21.683,21.683,0,0,1,21.666-21.7h8.666v-8.935a8.675,8.675,0,0,1,8.668-8.681h8.666l-28.223-56.54a30.342,30.342,0,0,1-28.11-30.271A30.344,30.344,0,0,1,150.522,80.945ZM196,107.084a6.12,6.12,0,0,1,8.619,8.69c-.427.427-10.635,10.474-25.991,10.474S153.07,116.2,152.642,115.774a6.12,6.12,0,0,1,8.623-8.687c.173.167,7.269,6.911,17.366,6.911C188.805,114,195.932,107.153,196,107.084Z" transform="translate(-48.632 -2.928)" fill="#282828"/>
  <path id="Tracé_17" data-name="Tracé 17" d="M103.979,199.444,106,206.168h12.983l-14.5-44.4H88.717l-14.188,44.4h12.35l2.027-6.724Zm-7.853-24.422h.633l4.053,13.637H92.074Z" transform="translate(-73.888 56.089)" fill="#282828"/>
  <path id="Tracé_18" data-name="Tracé 18" d="M142.713,206.168l-8.992-16.049a15.2,15.2,0,0,0,7.22-13c0-9.073-7.157-15.352-16.276-15.352H106.3v44.4h12.159V192.656h4.306l6.586,13.512ZM123.4,182.38h-4.939V172.039H123.4c2.914,0,5.193,1.776,5.193,5.076A4.938,4.938,0,0,1,123.4,182.38Z" transform="translate(-57.092 56.089)" fill="#282828"/>
  <path id="Tracé_19" data-name="Tracé 19" d="M178.511,189.2H165.275a10.48,10.48,0,0,1-9.944,6.344c-6.714,0-10.894-4.758-10.894-11.291,0-6.407,4.179-11.291,10.894-11.291,5.256,0,8.613,3.171,9.372,6.534H177.94c-1.457-10.086-9.753-18.269-22.609-18.269-14.058,0-23.559,9.959-23.559,23.027,0,13.132,9.437,23.027,23.559,23.027C168.06,207.279,177.052,199.223,178.511,189.2Z" transform="translate(-43.624 55.803)" fill="#282828"/>
  <path id="Tracé_20" data-name="Tracé 20" d="M192.411,199.444l2.025,6.724h12.982l-14.5-44.4h-15.77l-14.186,44.4H175.31l2.029-6.724Zm-7.853-24.422h.633l4.053,13.637H180.5Z" transform="translate(-27.134 56.089)" fill="#282828"/>
  <path id="Tracé_21" data-name="Tracé 21" d="M234.692,183.712c0-12.941-8.8-21.949-23.053-21.949H194.73v44.4h16.909C225.89,206.168,234.692,197.478,234.692,183.712Zm-27.8,11.99V172.231h4.117c4.75,0,11.02,2.41,11.02,11.481,0,9.58-6.335,11.99-11.02,11.99Z" transform="translate(-10.338 56.089)" fill="#282828"/>
  <path id="Tracé_22" data-name="Tracé 22" d="M236.754,195.828v-6.787h14.5V178.764h-14.5V172.04h17.162V161.763H224.594v44.405h29.954v-10.34Z" transform="translate(5.451 56.089)" fill="#282828"/>
  <path id="Tracé_23" data-name="Tracé 23" d="M74.11,230.056h9.308v-12.14H95V210.05H83.418v-6.118H96.556v-7.866H74.11Z" transform="translate(-74.11 74.312)" fill="#282828"/>
  <path id="Tracé_24" data-name="Tracé 24" d="M109.29,195.653c-10.47,0-18.276,7.624-18.276,17.626,0,10.053,7.757,17.628,18.276,17.628,10.423,0,18.228-7.673,18.228-17.628C127.518,203.374,119.761,195.653,109.29,195.653Zm0,26.27a8.645,8.645,0,1,1,8.532-8.644A8.293,8.293,0,0,1,109.29,221.923Z" transform="translate(-65.173 74.093)" fill="#282828"/>
  <path id="Tracé_25" data-name="Tracé 25" d="M144.266,207.817c0-6.944-5.479-11.752-12.459-11.752H117.749v33.991h9.307V219.714h3.3l5.042,10.342h10.229l-6.885-12.284A11.634,11.634,0,0,0,144.266,207.817Zm-13.428,4.03h-3.782v-7.917h3.782a3.69,3.69,0,0,1,3.975,3.886A3.78,3.78,0,0,1,130.838,211.848Z" transform="translate(-51.038 74.312)" fill="#282828"/>
  <path id="Tracé_26" data-name="Tracé 26" d="M163.833,211.434v7.526h7.272c-.775,1.507-3.394,3.254-7.272,3.254-5.138,0-8.386-3.836-8.386-8.935,0-4.9,3.248-8.644,8.386-8.644,3.588,0,6.109,1.894,6.98,4.128h10.23c-1.406-7.333-7.758-13.111-17.21-13.111-10.762,0-18.081,7.624-18.081,17.626,0,10.053,7.271,17.628,18.081,17.628,11.392,0,18.227-7.673,17.6-19.473Z" transform="translate(-36.233 74.093)" fill="#282828"/>
  <path id="Tracé_27" data-name="Tracé 27" d="M189.621,195.653c-10.472,0-18.277,7.624-18.277,17.626,0,10.053,7.758,17.628,18.277,17.628,10.421,0,18.228-7.673,18.228-17.628C207.849,203.374,200.091,195.653,189.621,195.653Zm0,26.27a8.645,8.645,0,1,1,8.53-8.644A8.3,8.3,0,0,1,189.621,221.923Z" transform="translate(-22.702 74.093)" fill="#282828"/>
  <path id="Tracé_28" data-name="Tracé 28" d="M215.721,195.653c-10.472,0-18.276,7.624-18.276,17.626,0,10.053,7.757,17.628,18.276,17.628,10.423,0,18.228-7.673,18.228-17.628C233.949,203.374,226.192,195.653,215.721,195.653Zm0,26.27a8.645,8.645,0,1,1,8.532-8.644A8.294,8.294,0,0,1,215.721,221.923Z" transform="translate(-8.903 74.093)" fill="#282828"/>
  <path id="Tracé_29" data-name="Tracé 29" d="M237.124,196.065H224.179v33.991h12.945c10.907,0,17.644-6.652,17.644-17.188C254.768,202.962,248.031,196.065,237.124,196.065Zm-.486,25.979h-3.151V204.078h3.151c3.637,0,8.435,1.845,8.435,8.789C245.073,220.2,240.226,222.044,236.638,222.044Z" transform="translate(5.232 74.312)" fill="#282828"/>
  <path id="Tracé_30" data-name="Tracé 30" d="M303.776,171.666h8.668a21.685,21.685,0,0,1,21.666,21.7V41.2a21.684,21.684,0,0,0-21.666-21.7H95.778A21.685,21.685,0,0,0,74.11,41.2V193.369a21.685,21.685,0,0,1,21.668-21.7h8.666v-8.935a8.673,8.673,0,0,1,8.666-8.681h8.666l31.967-64.039a30.348,30.348,0,1,1,50.368-22.773,30.333,30.333,0,1,1,50.366,22.773l31.967,64.039h8.666a8.673,8.673,0,0,1,8.666,8.681Z" transform="translate(-74.11 -19.493)" fill="#282828"/>
  <ellipse id="Ellipse_3" data-name="Ellipse 3" cx="17.333" cy="17.362" rx="17.333" ry="17.362" transform="translate(82.334 30.383)" fill="#282828"/>
  <ellipse id="Ellipse_4" data-name="Ellipse 4" cx="17.333" cy="17.362" rx="17.333" ry="17.362" transform="translate(143 30.383)" fill="#282828"/>
</svg>
