<svg id="Composant_3_4" data-name="Composant 3 – 4" xmlns="http://www.w3.org/2000/svg" width="130" height="152" viewBox="0 0 130 152">
  <path id="Tracé_16" data-name="Tracé 16" d="M136.41,65.76,122.3,93.937h4.334a4.33,4.33,0,0,1,4.333,4.326v4.453H135.3a10.824,10.824,0,0,1,10.833,10.816v17.179H154.8V113.532a10.824,10.824,0,0,1,10.833-10.816h4.333V98.264a4.33,4.33,0,0,1,4.334-4.326h4.333L164.521,65.76a15.142,15.142,0,0,1-14.055-15.086A15.143,15.143,0,0,1,136.41,65.76Zm22.741,13.026a3.055,3.055,0,0,1,4.309,4.331,18.786,18.786,0,0,1-25.99,0,3.055,3.055,0,0,1,4.312-4.329,12.67,12.67,0,0,0,17.369,0Z" transform="translate(-85.466 -26.879)" fill="#fff"/>
  <path id="Tracé_17" data-name="Tracé 17" d="M89.254,180.542l1.013,3.351h6.492l-7.251-22.13H81.623l-7.094,22.13H80.7l1.014-3.351Zm-3.926-12.171h.316l2.026,6.8H83.3Z" transform="translate(-74.209 -53.194)" fill="#fff"/>
  <path id="Tracé_18" data-name="Tracé 18" d="M124.506,183.893l-4.5-8a7.569,7.569,0,0,0,3.61-6.48c0-4.521-3.579-7.651-8.138-7.651H106.3v22.13h6.08v-6.734h2.153l3.293,6.734Zm-9.658-11.855h-2.47v-5.153h2.47a2.407,2.407,0,0,1,2.6,2.53A2.465,2.465,0,0,1,114.848,172.038Z" transform="translate(-81.695 -53.194)" fill="#fff"/>
  <path id="Tracé_19" data-name="Tracé 19" d="M155.141,175.166h-6.618a5.24,5.24,0,0,1-4.972,3.162c-3.357,0-5.447-2.371-5.447-5.627a5.282,5.282,0,0,1,5.447-5.627,4.537,4.537,0,0,1,4.686,3.256h6.619c-.728-5.027-4.877-9.1-11.3-9.1-7.029,0-11.779,4.963-11.779,11.476,0,6.544,4.718,11.476,11.779,11.476C149.916,184.177,154.412,180.162,155.141,175.166Z" transform="translate(-87.698 -53.067)" fill="#fff"/>
  <path id="Tracé_20" data-name="Tracé 20" d="M177.686,180.542l1.013,3.351h6.491l-7.251-22.13h-7.885l-7.093,22.13h6.174l1.014-3.351Zm-3.926-12.171h.316l2.026,6.8h-4.37Z" transform="translate(-95.048 -53.194)" fill="#fff"/>
  <path id="Tracé_21" data-name="Tracé 21" d="M214.711,172.7c0-6.449-4.4-10.939-11.526-10.939H194.73v22.13h8.454C210.31,183.893,214.711,179.562,214.711,172.7Zm-13.9,5.975v-11.7h2.058c2.375,0,5.51,1.2,5.51,5.722,0,4.774-3.167,5.975-5.51,5.975Z" transform="translate(-102.534 -53.194)" fill="#fff"/>
  <path id="Tracé_22" data-name="Tracé 22" d="M230.674,178.74v-3.383h7.251v-5.122h-7.251v-3.351h8.581v-5.121H224.594v22.13h14.977V178.74Z" transform="translate(-109.572 -53.194)" fill="#fff"/>
  <path id="Tracé_23" data-name="Tracé 23" d="M74.11,213h4.654v-6.05h5.793v-3.92H78.764v-3.049h6.569v-3.92H74.11Z" transform="translate(-74.11 -61.32)" fill="#fff"/>
  <path id="Tracé_24" data-name="Tracé 24" d="M100.152,195.653a8.768,8.768,0,0,0-9.138,8.784c0,5.01,3.878,8.785,9.138,8.785a8.791,8.791,0,1,0,0-17.569Zm0,13.092a4.308,4.308,0,1,1,4.266-4.308A4.139,4.139,0,0,1,100.152,208.745Z" transform="translate(-78.093 -61.222)" fill="#fff"/>
  <path id="Tracé_25" data-name="Tracé 25" d="M131.007,201.922c0-3.461-2.739-5.857-6.229-5.857h-7.029V213H122.4v-5.154h1.649L126.572,213h5.114l-3.443-6.122A5.794,5.794,0,0,0,131.007,201.922Zm-6.714,2.009H122.4v-3.945h1.891a1.842,1.842,0,0,1,1.987,1.937A1.887,1.887,0,0,1,124.293,203.93Z" transform="translate(-84.393 -61.32)" fill="#fff"/>
  <path id="Tracé_26" data-name="Tracé 26" d="M154.793,203.518v3.751h3.636a4.4,4.4,0,1,1-3.636-7.139,3.593,3.593,0,0,1,3.49,2.057H163.4c-.7-3.655-3.879-6.534-8.605-6.534-5.381,0-9.041,3.8-9.041,8.784,0,5.01,3.635,8.785,9.041,8.785,5.7,0,9.113-3.824,8.8-9.7Z" transform="translate(-90.992 -61.222)" fill="#fff"/>
  <path id="Tracé_27" data-name="Tracé 27" d="M180.483,195.653a8.768,8.768,0,0,0-9.139,8.784c0,5.01,3.879,8.785,9.139,8.785a8.791,8.791,0,1,0,0-17.569Zm0,13.092a4.308,4.308,0,1,1,4.265-4.308A4.141,4.141,0,0,1,180.483,208.745Z" transform="translate(-97.023 -61.222)" fill="#fff"/>
  <path id="Tracé_28" data-name="Tracé 28" d="M206.583,195.653a8.768,8.768,0,0,0-9.138,8.784c0,5.01,3.878,8.785,9.138,8.785a8.791,8.791,0,1,0,0-17.569Zm0,13.092a4.308,4.308,0,1,1,4.266-4.308A4.14,4.14,0,0,1,206.583,208.745Z" transform="translate(-103.174 -61.222)" fill="#fff"/>
  <path id="Tracé_29" data-name="Tracé 29" d="M230.652,196.065h-6.473V213h6.473c5.454,0,8.822-3.315,8.822-8.566C239.474,199.5,236.105,196.065,230.652,196.065Zm-.243,12.947h-1.575v-8.954h1.575c1.818,0,4.218.92,4.218,4.38C234.626,208.092,232.2,209.012,230.408,209.012Z" transform="translate(-109.474 -61.32)" fill="#fff"/>
  <path id="Tracé_30" data-name="Tracé 30" d="M188.943,95.33h4.334a10.825,10.825,0,0,1,10.833,10.815V30.309a10.824,10.824,0,0,0-10.833-10.816H84.944A10.825,10.825,0,0,0,74.11,30.309v75.837A10.825,10.825,0,0,1,84.944,95.33h4.333V90.877a4.33,4.33,0,0,1,4.333-4.326h4.333l15.983-31.914A15.147,15.147,0,1,1,139.11,43.288a15.167,15.167,0,1,1,25.183,11.349l15.983,31.914h4.333a4.33,4.33,0,0,1,4.333,4.326Z" transform="translate(-74.11 -19.493)" fill="#fff"/>
  <ellipse id="Ellipse_3" data-name="Ellipse 3" cx="8.667" cy="8.653" rx="8.667" ry="8.653" transform="translate(41.167 15.142)" fill="#fff"/>
  <ellipse id="Ellipse_4" data-name="Ellipse 4" cx="8.667" cy="8.653" rx="8.667" ry="8.653" transform="translate(71.5 15.142)" fill="#fff"/>
</svg>
