<svg xmlns="http://www.w3.org/2000/svg" width="325" height="260" viewBox="0 0 325 260">
  <g id="Groupe_23" data-name="Groupe 23" transform="translate(-45.197 -257.953)">
    <circle id="Ellipse_27" data-name="Ellipse 27" cx="21.607" cy="21.607" r="21.607" transform="translate(148.157 295.765)" fill="#282828"/>
    <path id="Tracé_54" data-name="Tracé 54" d="M343.114,257.953H72.28a27.089,27.089,0,0,0-27.083,27.1v190a27.089,27.089,0,0,1,27.083-27.1H83.113V436.8a10.837,10.837,0,0,1,10.835-10.839H104.78L144.737,346a37.912,37.912,0,1,1,62.96-28.434A37.917,37.917,0,1,1,270.657,346l39.957,79.958h10.835A10.835,10.835,0,0,1,332.281,436.8v11.156h10.833a27.089,27.089,0,0,1,27.083,27.1v-190A27.089,27.089,0,0,0,343.114,257.953Z" transform="translate(0)" fill="#282828"/>
    <path id="Tracé_55" data-name="Tracé 55" d="M198.653,326.807a37.787,37.787,0,0,1-35.043-37.673,37.787,37.787,0,0,1-35.041,37.673L93.386,397.171h10.8a10.8,10.8,0,0,1,10.8,10.8v11.12H125.8A27.009,27.009,0,0,1,152.806,446.1V489h21.606V446.1a27.009,27.009,0,0,1,27.011-27.009h10.8v-11.12a10.8,10.8,0,0,1,10.8-10.8h10.8Zm-5.208,34.788-.263,1.3a25.447,25.447,0,0,1-14.31,18.075h0a29.663,29.663,0,0,1-30.525,0,25.447,25.447,0,0,1-14.31-18.075l-.261-1.3a11.2,11.2,0,0,1,12.884-12.884l10.809,1.8a37.313,37.313,0,0,0,12.282,0l10.807-1.8A11.2,11.2,0,0,1,193.444,361.595Z" transform="translate(44.087 28.95)" fill="#282828"/>
    <path id="Tracé_56" data-name="Tracé 56" d="M159.946,310.74A21.614,21.614,0,0,0,180.439,296a5.27,5.27,0,0,0-5.056-6.862H144.508A5.271,5.271,0,0,0,139.451,296,21.615,21.615,0,0,0,159.946,310.74Z" transform="translate(85.684 28.417)" fill="#282828"/>
  </g>
</svg>
