<svg xmlns="http://www.w3.org/2000/svg" width="64" height="64" viewBox="0 0 64 64">
  <g id="Composant_4_2" data-name="Composant 4 – 2" transform="translate(2 2)">
    <g id="Groupe_2" data-name="Groupe 2">
      <path id="Tracé_32" data-name="Tracé 32" d="M793.4,205.662v-8.194a2.89,2.89,0,0,0-2.89-2.89H765.252a2.89,2.89,0,0,0-2.89,2.89v8.194" transform="translate(-747.879 -156.007)" fill="none" stroke="#5dc3e4" stroke-linecap="round" stroke-linejoin="round" stroke-width="4"/>
      <path id="Rectangle_10" data-name="Rectangle 10" d="M3.72,0H14.014a3.72,3.72,0,0,1,3.72,3.72V6.65a0,0,0,0,1,0,0H0a0,0,0,0,1,0,0V3.72A3.72,3.72,0,0,1,3.72,0Z" transform="translate(21.133 31.921)" fill="none" stroke="#5dc3e4" stroke-linecap="round" stroke-linejoin="round" stroke-width="4"/>
      <ellipse id="Ellipse_5" data-name="Ellipse 5" cx="1.108" cy="1.108" rx="1.108" ry="1.108" transform="translate(21.262 44.569)" fill="none" stroke="#5dc3e4" stroke-linecap="round" stroke-linejoin="round" stroke-width="4"/>
      <ellipse id="Ellipse_6" data-name="Ellipse 6" cx="1.108" cy="1.108" rx="1.108" ry="1.108" transform="translate(29.15 44.569)" fill="none" stroke="#5dc3e4" stroke-linecap="round" stroke-linejoin="round" stroke-width="4"/>
      <path id="Tracé_33" data-name="Tracé 33" d="M788.272,158.4a7.246,7.246,0,1,0-9.851,6.754v10.071h5.224V165.152A7.242,7.242,0,0,0,788.272,158.4Z" transform="translate(-750.964 -144.278)" fill="none" stroke="#5dc3e4" stroke-linecap="round" stroke-linejoin="round" stroke-width="4"/>
      <ellipse id="Ellipse_7" data-name="Ellipse 7" cx="30" cy="30" rx="30" ry="30" fill="none" stroke="#b3aa99" stroke-linecap="round" stroke-linejoin="round" stroke-width="4"/>
    </g>
  </g>
</svg>
