<svg xmlns="http://www.w3.org/2000/svg" width="30" height="30" viewBox="0 0 30 30">
  <g id="Groupe_58" data-name="Groupe 58" transform="translate(-1094.471 -418.086)">
    <path id="Tracé_107" data-name="Tracé 107" d="M1.11,3.923l.48-.778-.495.77.014.008.48-.778-.495.77A10.908,10.908,0,0,1,3.937,6.544a12.734,12.734,0,0,1,1.9,3.425,14.644,14.644,0,0,1,.865,5.1,14.425,14.425,0,0,1-.913,5.21A12.211,12.211,0,0,1,2.772,24.8a10.516,10.516,0,0,1-1.237,1.008c-.15.1-.266.175-.335.217l-.067.04-.005,0,.646,1.055L1.142,26.06l-.015.008.646,1.055L1.142,26.06a2.041,2.041,0,0,0-.857,2.864,2.305,2.305,0,0,0,3.038.807,14.354,14.354,0,0,0,4.025-3.479,16.466,16.466,0,0,0,2.634-4.544,18.414,18.414,0,0,0,1.179-6.639A18.59,18.59,0,0,0,9.984,8.414,16.815,16.815,0,0,0,5.948,2.286a13.229,13.229,0,0,0-2.593-2A2.308,2.308,0,0,0,.3,1.046,2.039,2.039,0,0,0,1.11,3.923Z" transform="translate(1094.471 429.247) rotate(-90)" fill="#b3aa99"/>
    <path id="Tracé_108" data-name="Tracé 108" d="M1.149,3.9,1.763,2.87,1.128,3.891l.021.011L1.763,2.87,1.128,3.891h0A8.016,8.016,0,0,1,3.343,5.928,9.807,9.807,0,0,1,4.8,8.616a12.111,12.111,0,0,1,.67,4.108,11.8,11.8,0,0,1-.726,4.23A9.24,9.24,0,0,1,2.391,20.48a7.6,7.6,0,0,1-.946.75c-.113.075-.2.125-.244.151L1.16,21.4h0l.575.955-.553-.966-.022.011.575.955-.553-.966A2.013,2.013,0,0,0,.263,24.21a2.316,2.316,0,0,0,3.021.856,11.556,11.556,0,0,0,3.451-2.9,13.506,13.506,0,0,0,2.216-3.823,15.71,15.71,0,0,0,.983-5.62,15.939,15.939,0,0,0-.98-5.647,13.71,13.71,0,0,0-3.4-5.149A10.6,10.6,0,0,0,3.316.262a2.319,2.319,0,0,0-3.035.809A2.01,2.01,0,0,0,1.149,3.9Z" transform="translate(1096.814 435.428) rotate(-90)" fill="#b3aa99"/>
    <path id="Tracé_109" data-name="Tracé 109" d="M1.213,3.875,1.926,2.6,1.185,3.861l.029.014L1.926,2.6,1.185,3.861l.168-.286-.174.283.006,0,.168-.286-.174.283a5.179,5.179,0,0,1,1.54,1.4A6.961,6.961,0,0,1,3.754,7.228a9.608,9.608,0,0,1,.487,3.152A9.214,9.214,0,0,1,3.7,13.642a6.314,6.314,0,0,1-1.684,2.527,4.724,4.724,0,0,1-.644.49c-.073.046-.125.073-.147.086l-.012.006h0l.542.928-.506-.944-.036.017.542.928-.506-.944A1.977,1.977,0,0,0,.23,19.48a2.327,2.327,0,0,0,2.988.934,8.835,8.835,0,0,0,2.9-2.332,10.585,10.585,0,0,0,1.8-3.108,13.016,13.016,0,0,0,.784-4.595,13.276,13.276,0,0,0-.781-4.63A10.656,10.656,0,0,0,5.153,1.568,8.12,8.12,0,0,0,3.252.227a2.331,2.331,0,0,0-3.005.887A1.973,1.973,0,0,0,1.213,3.875Z" transform="translate(1099.158 441.713) rotate(-90)" fill="#282828"/>
    <path id="Tracé_110" data-name="Tracé 110" d="M1.339,3.838l.587-1.206L1.273,3.811l.066.027.587-1.206L1.273,3.811l.223-.4-.234.4.011.005.223-.4-.234.4h0a2.6,2.6,0,0,1,.861.817,4.378,4.378,0,0,1,.6,1.251,7.314,7.314,0,0,1,.292,2.161,6.733,6.733,0,0,1-.361,2.314,3.518,3.518,0,0,1-1,1.523,2.03,2.03,0,0,1-.318.226l-.032.017-.007,0,.469.808-.39-.839c-.054.02-.079.032-.079.032l.469.808-.39-.839a1.935,1.935,0,0,0-1.2,2.619,2.331,2.331,0,0,0,2.92,1.078A5.033,5.033,0,0,0,4,15.316a7.081,7.081,0,0,0,2.268-2.38,9.484,9.484,0,0,0,1.213-4.9,10.654,10.654,0,0,0-.577-3.6A7.676,7.676,0,0,0,4.745,1.2,5.808,5.808,0,0,0,3.127.168,2.337,2.337,0,0,0,.188,1.2,1.929,1.929,0,0,0,1.339,3.838Z" transform="translate(1101.502 448.086) rotate(-90)" fill="#282828"/>
  </g>
</svg>
