<svg xmlns="http://www.w3.org/2000/svg" width="325" height="260" viewBox="0 0 325 260">
  <g id="Groupe_24" data-name="Groupe 24" transform="translate(-444.882 -255.118)">
    <path id="Tracé_57" data-name="Tracé 57" d="M731.966,445.365H742.8a27.108,27.108,0,0,1,27.083,27.13V282.25A27.108,27.108,0,0,0,742.8,255.118H471.965a27.108,27.108,0,0,0-27.083,27.132V472.5a27.108,27.108,0,0,1,27.083-27.132H482.8v-11.17a10.844,10.844,0,0,1,10.835-10.853h10.833l39.957-80.061a37.938,37.938,0,1,1,62.96-28.47,37.917,37.917,0,1,1,62.96,28.47L710.3,423.342h10.835a10.842,10.842,0,0,1,10.833,10.853Z" transform="translate(0 0)" fill="#282828"/>
    <circle id="Ellipse_28" data-name="Ellipse 28" cx="21.467" cy="21.467" r="21.467" transform="translate(536.535 279.792)" fill="#282828"/>
    <circle id="Ellipse_29" data-name="Ellipse 29" cx="21.467" cy="21.467" r="21.467" transform="translate(637.977 302.336)" fill="#282828"/>
    <path id="Tracé_58" data-name="Tracé 58" d="M597.652,323.727A37.541,37.541,0,0,1,562.837,286.3a37.541,37.541,0,0,1-34.813,37.428l-34.953,69.906H503.8a10.733,10.733,0,0,1,10.733,10.733v11.047h10.735A26.834,26.834,0,0,1,552.1,442.246v42.621H573.57V442.246A26.835,26.835,0,0,1,600.4,415.413h10.733V404.366a10.733,10.733,0,0,1,10.733-10.733h10.735Zm11.464,62.191a7.576,7.576,0,0,1-10.6-.339c-.4-.377-9.828-9.023-35.156-9.023-15.5,0-28.989,5.786-34.777,8.883a7.661,7.661,0,0,1-1.795,1.45,12.182,12.182,0,0,1-5.958,1.994,7.1,7.1,0,0,1-4.669-1.761A7.612,7.612,0,0,1,513.9,378.7c.538-1.486,1.8-4.966,16.941-10.877a91.232,91.232,0,0,1,32.524-6.416c32.564,0,44.9,12.393,46.2,13.808A7.574,7.574,0,0,1,609.116,385.918Z" transform="translate(44.545 30.251)" fill="#282828"/>
  </g>
</svg>
