<?xml version="1.0" encoding="utf-8"?>
<!-- Generator: Adobe Illustrator 25.3.1, SVG Export Plug-In . SVG Version: 6.00 Build 0)  -->
<svg version="1.1" id="Calque_1" xmlns="http://www.w3.org/2000/svg" xmlns:xlink="http://www.w3.org/1999/xlink" x="0px" y="0px"
	 viewBox="0 0 379 89" style="enable-background:new 0 0 379 89;" xml:space="preserve">
<style type="text/css">
	.st0{enable-background:new    ;}
	.st1{fill:#5DC3E4;}
	.st2{fill:#282828;}
</style>
<g id="Groupe_52" transform="translate(-830 -85)">
	<g class="st0">
		<path class="st1" d="M932,115.5c0-10.3,7.5-18.2,18.4-18.2c9.5,0,15.9,6,17.4,13.7h-8.6c-0.9-3.5-4.3-6.1-8.8-6.1
			c-6.1,0-10.2,4.6-10.2,10.6c0,6.1,4.2,10.6,10.2,10.6c4.5,0,7.8-2.6,9.1-5.9h8.7c-1.5,7.7-8.4,13.5-17.8,13.5
			C939.5,133.7,932,125.8,932,115.5z"/>
		<path class="st1" d="M973.5,98h7.9v13.6h14V98h8v35h-8v-13.9h-14V133h-7.9V98z"/>
		<path class="st1" d="M1008.7,115.5c0-10.3,7.9-18.2,18.6-18.2c10.7,0,18.6,8,18.6,18.2c0,10.3-8,18.2-18.6,18.2
			C1016.6,133.7,1008.7,125.8,1008.7,115.5z M1037.7,115.5c0-6-4.3-10.6-10.4-10.6c-6.1,0-10.4,4.6-10.4,10.6
			c0,6,4.3,10.6,10.4,10.6C1033.4,126,1037.7,121.5,1037.7,115.5z"/>
		<path class="st1" d="M1051,98h7.9v35h-7.9V98z"/>
		<path class="st1" d="M1063.8,121.6h7.6c0.1,2.8,2.3,4.8,6.3,4.8c3.3,0,5.2-1.2,5.2-3.5c0-6.5-18.2-0.7-18.2-15.1
			c0-5.9,4.5-10.5,12.6-10.5c7.3,0,12.7,3.8,13,11.2h-7.9c0-2.4-1.9-4.1-5.1-4.1c-3.1,0-4.7,1.4-4.7,3.2c0,6.2,18.6,0.5,18.6,14.7
			c0,6.5-5,11.3-13.8,11.3C1068.9,133.7,1063.7,128.8,1063.8,121.6z"/>
		<path class="st1" d="M1096.2,98h7.9v35h-7.9V98z"/>
		<path class="st1" d="M1111,98h13.7c7.2,0,12.4,4.7,12.4,11.6c0,4.7-2.6,8.4-6.2,10.2l7.4,13.3h-8.8l-6-11.7h-4.7V133h-7.9V98z
			 M1124,114.5c2.8,0,5-1.8,5-5c0-2.9-2-4.8-5.1-4.8h-5v9.8H1124z"/>
	</g>
	<g class="st0">
		<path class="st1" d="M931.9,156v-13h4.8v13c0,2.4,1.3,3.9,3.8,3.9s3.8-1.5,3.8-4v-13h4.8v13c0,5-3.4,8.4-8.5,8.4
			C935.2,164.4,931.9,161,931.9,156z"/>
		<path class="st1" d="M952.9,143h5.2l8,13.2h0.2V143h4.6v21h-5.3l-8-13.2h-0.2V164h-4.6V143z"/>
		<path class="st1" d="M975.1,143h13.3v4h-8.5v4.3h7.3v4h-7.3v4.5h8.9v4.1h-13.6V143z"/>
		<path class="st1" d="M1005.1,143h6.1l7.2,21h-5l-1.3-3.7h-8l-1.2,3.7H998L1005.1,143z M1010.8,156.1l-2.6-7.8h-0.3l-2.6,7.8
			H1010.8z"/>
		<path class="st1" d="M1019.7,157.2h4.5c0.1,1.7,1.4,2.9,3.8,2.9c2,0,3.2-0.8,3.2-2.1c0-3.9-10.9-0.4-10.9-9.1
			c0-3.5,2.7-6.3,7.6-6.3c4.4,0,7.6,2.2,7.8,6.7h-4.7c0-1.4-1.1-2.5-3.1-2.5c-1.9,0-2.8,0.8-2.8,2c0,3.7,11.2,0.3,11.2,8.8
			c0,3.9-3,6.8-8.2,6.8C1022.8,164.4,1019.6,161.5,1019.7,157.2z"/>
		<path class="st1" d="M1037.9,157.2h4.5c0.1,1.7,1.4,2.9,3.8,2.9c2,0,3.2-0.8,3.2-2.1c0-3.9-11-0.4-11-9.1c0-3.5,2.7-6.3,7.6-6.3
			c4.4,0,7.6,2.2,7.8,6.7h-4.7c0-1.4-1.1-2.5-3.1-2.5c-1.9,0-2.8,0.8-2.8,2c0,3.7,11.2,0.3,11.2,8.8c0,3.9-3,6.8-8.2,6.8
			C1041,164.4,1037.9,161.5,1037.9,157.2z"/>
		<path class="st1" d="M1056.5,153.5c0-6.2,4.7-10.9,11.2-10.9c6.4,0,11.2,4.8,11.2,10.9c0,6.2-4.8,10.9-11.2,10.9
			C1061.2,164.4,1056.5,159.7,1056.5,153.5z M1073.9,153.5c0-3.6-2.6-6.3-6.2-6.3c-3.7,0-6.2,2.8-6.2,6.3c0,3.6,2.6,6.3,6.2,6.3
			C1071.3,159.8,1073.9,157.1,1073.9,153.5z"/>
		<path class="st1" d="M1081.2,153.5c0-6.2,4.5-10.9,11-10.9c5.7,0,9.5,3.6,10.4,8.2h-5.2c-0.6-2.1-2.6-3.6-5.3-3.6
			c-3.6,0-6.1,2.7-6.1,6.3c0,3.7,2.5,6.3,6.1,6.3c2.7,0,4.7-1.5,5.5-3.5h5.2c-0.9,4.6-5,8.1-10.6,8.1
			C1085.7,164.4,1081.2,159.7,1081.2,153.5z"/>
		<path class="st1" d="M1105.9,143h4.7v21h-4.7V143z"/>
		<path class="st1" d="M1120.3,143h6.1l7.2,21h-5l-1.3-3.7h-8l-1.2,3.7h-4.9L1120.3,143z M1126,156.1l-2.6-7.8h-0.3l-2.6,7.8H1126z"
			/>
		<path class="st1" d="M1138.9,147.1h-5.8V143h16.5v4.1h-5.9V164h-4.8V147.1z"/>
		<path class="st1" d="M1152.4,143h4.7v21h-4.7V143z"/>
		<path class="st1" d="M1160.3,153.5c0-6.2,4.7-10.9,11.2-10.9s11.2,4.8,11.2,10.9c0,6.2-4.8,10.9-11.2,10.9
			C1165,164.4,1160.3,159.7,1160.3,153.5z M1177.6,153.5c0-3.6-2.6-6.3-6.2-6.3c-3.7,0-6.2,2.8-6.2,6.3c0,3.6,2.6,6.3,6.2,6.3
			C1175.1,159.8,1177.6,157.1,1177.6,153.5z"/>
		<path class="st1" d="M1185.8,143h5.2l8,13.2h0.2V143h4.6v21h-5.3l-8-13.2h-0.2V164h-4.6V143z"/>
	</g>
	<circle id="Ellipse_16" class="st1" cx="870" cy="134" r="40"/>
	<g class="st0">
		<path class="st2" d="M855.6,145.6c0-5.6,2.4-9.1,8-12.5l7.8-4.8c2.1-1.3,3.3-2.7,3.3-4.9c0-2.5-1.9-4.4-5.2-4.4
			c-3.2,0-5.2,2.4-5.2,5h-8.8c0-7,4.9-13.7,14-13.7c9.1,0,14.6,5.7,14.6,12.8c0,5.8-2.9,9.3-7.9,12.3l-8.4,4.9
			c-2.1,1.3-2.9,2.5-2.9,4.1v0.5h19.1v8.2h-28.5V145.6z"/>
	</g>
</g>
</svg>
