<?xml version="1.0" encoding="utf-8"?>
<!-- Generator: Adobe Illustrator 25.3.1, SVG Export Plug-In . SVG Version: 6.00 Build 0)  -->
<svg version="1.1" id="Calque_1" xmlns="http://www.w3.org/2000/svg" xmlns:xlink="http://www.w3.org/1999/xlink" x="0px" y="0px"
	 viewBox="0 0 270 89" style="enable-background:new 0 0 270 89;" xml:space="preserve">
<style type="text/css">
	.st0{enable-background:new    ;}
	.st1{fill:#5DC3E4;}
	.st2{fill:none;stroke:#5DC3E4;stroke-width:10;}
	.st3{fill:#282828;}
</style>
<g id="Groupe_51" transform="translate(-270 -85)">
	<g class="st0">
		<path class="st1" d="M371.5,121.7h7.5c0,2.7,1.7,4.7,4.9,4.7c3.6,0,4.9-2.8,4.9-5.4v-16.2h-11.1V98h19.1v23.4
			c0,7.5-4.9,12.2-12.8,12.2C376,133.6,371.5,128.8,371.5,121.7z"/>
		<path class="st1" d="M401.7,115.5c0-10.3,7.9-18.2,18.6-18.2s18.6,8,18.6,18.2c0,10.3-8,18.2-18.6,18.2
			C409.6,133.7,401.7,125.8,401.7,115.5z M430.7,115.5c0-6-4.3-10.6-10.4-10.6c-6.1,0-10.4,4.6-10.4,10.6c0,6,4.3,10.6,10.4,10.6
			C426.4,126,430.7,121.5,430.7,115.5z"/>
		<path class="st1" d="M444,119.7V98h8v21.7c0,4,2.1,6.5,6.3,6.5s6.3-2.5,6.3-6.6V98h8v21.7c0,8.4-5.7,14-14.3,14
			C449.7,133.7,444,128,444,119.7z"/>
		<path class="st1" d="M479,98h22.2v6.8h-14.3v7.3h12.2v6.8h-12.2v7.5h14.8v6.8H479V98z"/>
		<path class="st1" d="M507.1,98h13.7c7.2,0,12.4,4.7,12.4,11.6c0,4.7-2.7,8.4-6.2,10.2l7.5,13.3h-8.8l-6-11.7H515V133h-7.9V98z
			 M520.1,114.5c2.9,0,5-1.8,5-5c0-2.9-2-4.8-5.1-4.8h-5v9.8H520.1z"/>
	</g>
	<g class="st0">
		<path class="st1" d="M371.9,156v-13h4.8v13c0,2.4,1.3,3.9,3.8,3.9s3.8-1.5,3.8-4v-13h4.8v13c0,5-3.4,8.4-8.5,8.4
			C375.2,164.4,371.9,161,371.9,156z"/>
		<path class="st1" d="M392.9,143h5.2l8,13.2h0.2V143h4.6v21h-5.3l-8-13.2h-0.2V164h-4.6V143z"/>
		<path class="st1" d="M415.1,143h13.3v4h-8.6v4.3h7.3v4h-7.3v4.5h8.9v4.1h-13.6V143z"/>
		<path class="st1" d="M439.7,143h8.1c4.2,0,7.3,2.9,7.3,7c0,4.1-3.3,7.1-7.3,7.1h-3.4v6.9h-4.7V143z M447.3,153.1
			c1.7,0,3-1.2,3-3.1s-1.3-3-3-3h-2.9v6H447.3z"/>
		<path class="st1" d="M461.6,143h6.1l7.2,21h-5l-1.3-3.7h-8l-1.2,3.7h-4.9L461.6,143z M467.3,156.1l-2.6-7.8h-0.3l-2.6,7.8H467.3z"
			/>
		<path class="st1" d="M477.4,143h8.2c4.3,0,7.4,2.8,7.4,6.9c0,2.8-1.6,5-3.7,6.1l4.5,7.9h-5.3l-3.6-7h-2.8v7h-4.7V143z
			 M485.2,152.9c1.7,0,3-1,3-3c0-1.7-1.2-2.9-3.1-2.9h-3v5.9H485.2z"/>
		<path class="st1" d="M501.4,147.1h-5.8V143H512v4.1h-5.9V164h-4.8V147.1z"/>
		<path class="st1" d="M514.9,143h4.7v21h-4.7V143z"/>
		<path class="st1" d="M523.8,143h13.3v4h-8.5v4.3h7.3v4h-7.3v4.5h8.9v4.1h-13.6V143z"/>
	</g>
	<g id="Groupe_50">
		<g id="Ellipse_15" transform="translate(270 94)">
			<circle class="st1" cx="40" cy="40" r="40"/>
			<circle class="st2" cx="40" cy="40" r="35"/>
		</g>
		<g class="st0">
			<path class="st3" d="M307.5,125.4h-9.8v-7c8.1,0,10.5-2.2,10.5-6.4h8.7v42h-9.4V125.4z"/>
		</g>
	</g>
</g>
</svg>
