<?xml version="1.0" encoding="utf-8"?>
<!-- Generator: Adobe Illustrator 25.3.1, SVG Export Plug-In . SVG Version: 6.00 Build 0)  -->
<svg version="1.1" id="Calque_1" xmlns="http://www.w3.org/2000/svg" xmlns:xlink="http://www.w3.org/1999/xlink" x="0px" y="0px"
	 viewBox="0 0 329 89" style="enable-background:new 0 0 329 89;" xml:space="preserve">
<style type="text/css">
	.st0{enable-background:new    ;}
	.st1{fill:#5DC3E4;}
	.st2{fill:#282828;}
</style>
<g id="Groupe_53" transform="translate(-1501 -85)">
	<g class="st0">
		<path class="st1" d="M1602.5,98h13.7c7.2,0,12.4,4.7,12.4,11.6c0,4.7-2.6,8.4-6.2,10.2l7.5,13.3h-8.8l-6-11.7h-4.7V133h-7.9V98z
			 M1615.5,114.5c2.9,0,5-1.8,5-5c0-2.9-2-4.8-5.1-4.8h-5v9.8H1615.5z"/>
		<path class="st1" d="M1634.8,98h22.2v6.8h-14.3v7.3h12.2v6.8h-12.2v7.5h14.8v6.8h-22.7V98z M1645.8,86.4h7.4l-4.6,7.6h-5.3
			L1645.8,86.4z"/>
		<path class="st1" d="M1672,98h10.1l12.1,35h-8.4l-2.1-6.2h-13.4l-2.1,6.2h-8.1L1672,98z M1681.5,119.7l-4.3-13.1h-0.5l-4.3,13.1
			H1681.5z"/>
		<path class="st1" d="M1698.2,98h7.9v28h13.7v7.1h-21.6V98z"/>
		<path class="st1" d="M1725.1,98h7.9v35h-7.9V98z"/>
		<path class="st1" d="M1737.8,121.6h7.6c0.1,2.8,2.3,4.8,6.3,4.8c3.3,0,5.2-1.2,5.2-3.5c0-6.5-18.2-0.7-18.2-15.1
			c0-5.9,4.5-10.5,12.6-10.5c7.3,0,12.7,3.8,13,11.2h-7.9c0-2.4-1.9-4.1-5.1-4.1c-3.1,0-4.7,1.4-4.7,3.2c0,6.2,18.6,0.5,18.6,14.7
			c0,6.5-5,11.3-13.8,11.3C1743,133.7,1737.8,128.8,1737.8,121.6z"/>
		<path class="st1" d="M1770.3,98h22.2v6.8h-14.3v7.3h12.2v6.8h-12.2v7.5h14.8v6.8h-22.7V98z"/>
		<path class="st1" d="M1798.4,98h13.7c7.2,0,12.4,4.7,12.4,11.6c0,4.7-2.7,8.4-6.2,10.2l7.5,13.3h-8.8l-6-11.7h-4.7V133h-7.9V98z
			 M1811.4,114.5c2.9,0,5-1.8,5-5c0-2.9-2-4.8-5.1-4.8h-5v9.8H1811.4z"/>
	</g>
	<g class="st0">
		<path class="st1" d="M1600.9,156v-13h4.8v13c0,2.4,1.3,3.9,3.8,3.9s3.8-1.5,3.8-4v-13h4.8v13c0,5-3.4,8.4-8.5,8.4
			C1604.2,164.4,1600.9,161,1600.9,156z"/>
		<path class="st1" d="M1621.9,143h5.2l8,13.2h0.2V143h4.6v21h-5.3l-8-13.2h-0.2V164h-4.6V143z"/>
		<path class="st1" d="M1651.8,143h7.5c6.7,0,10.8,4.3,10.8,10.4c0,6.5-4.1,10.6-10.8,10.6h-7.5V143z M1659.1,159.9
			c3.1,0,6.1-1.7,6.1-6.5c0-4.5-3-6.3-6.1-6.3h-2.5v12.8H1659.1z"/>
		<path class="st1" d="M1672.5,153.5c0-6.2,4.7-10.9,11.2-10.9s11.2,4.8,11.2,10.9c0,6.2-4.8,10.9-11.2,10.9
			C1677.2,164.4,1672.5,159.7,1672.5,153.5z M1689.8,153.5c0-3.6-2.6-6.3-6.2-6.3c-3.7,0-6.2,2.8-6.2,6.3c0,3.6,2.6,6.3,6.2,6.3
			C1687.3,159.8,1689.8,157.1,1689.8,153.5z"/>
		<path class="st1" d="M1698,143h5.2l8,13.2h0.2V143h4.6v21h-5.3l-8-13.2h-0.2V164h-4.6V143z"/>
	</g>
	<circle id="Ellipse_17" class="st1" cx="1541" cy="134" r="40"/>
	<g class="st0">
		<path class="st2" d="M1527,140h8.7c0.1,2.6,2.1,4.7,5.3,4.7c3.4,0,5.5-2.2,5.5-5.1c0-2.6-2-5.1-5.6-5.1h-5.9v-7.1l8.5-7.6v-0.4
			h-15.7v-8.5h27.2v8.2l-8.8,7.9v0.4c5.7,1.1,9.8,6,9.8,12.3c0,7.4-5.5,14-14.9,14C1531.8,153.7,1527,146.9,1527,140z"/>
	</g>
</g>
</svg>
