<?xml version="1.0" encoding="UTF-8" standalone="no"?>
<svg
   xmlns:dc="http://purl.org/dc/elements/1.1/"
   xmlns:cc="http://creativecommons.org/ns#"
   xmlns:rdf="http://www.w3.org/1999/02/22-rdf-syntax-ns#"
   xmlns:svg="http://www.w3.org/2000/svg"
   xmlns="http://www.w3.org/2000/svg"
   xmlns:sodipodi="http://sodipodi.sourceforge.net/DTD/sodipodi-0.dtd"
   xmlns:inkscape="http://www.inkscape.org/namespaces/inkscape"
   id="Fleche_jaune"
   data-name="Fleche jaune"
   width="70.012001"
   height="47.737"
   viewBox="0 0 70.012002 47.736998"
   version="1.1"
   sodipodi:docname="up-arrow.svg"
   inkscape:version="0.92.5 (2060ec1f9f, 2020-04-08)">
  <metadata
     id="metadata13">
    <rdf:RDF>
      <cc:Work
         rdf:about="">
        <dc:format>image/svg+xml</dc:format>
        <dc:type
           rdf:resource="http://purl.org/dc/dcmitype/StillImage" />
        <dc:title></dc:title>
      </cc:Work>
    </rdf:RDF>
  </metadata>
  <defs
     id="defs11" />
  <sodipodi:namedview
     pagecolor="#ffffff"
     bordercolor="#666666"
     borderopacity="1"
     objecttolerance="10"
     gridtolerance="10"
     guidetolerance="10"
     inkscape:pageopacity="0"
     inkscape:pageshadow="2"
     inkscape:window-width="640"
     inkscape:window-height="480"
     id="namedview9"
     showgrid="false"
     inkscape:zoom="3.3709469"
     inkscape:cx="24.62316"
     inkscape:cy="23.867499"
     inkscape:window-x="60"
     inkscape:window-y="27"
     inkscape:window-maximized="0"
     inkscape:current-layer="Fleche_jaune"
     fit-margin-top="0"
     fit-margin-left="0"
     fit-margin-right="0"
     fit-margin-bottom="0" />
  <g
     id="fleche"
     transform="rotate(-90,26.8685,106.8685)">
    <path
       id="Tracé_795"
       data-name="Tracé 795"
       d="m 106,104 v 5.508 h 5.508 V 104 Z"
       transform="translate(16.721,20.065)"
       inkscape:connector-curvature="0"
       style="fill:#707070" />
    <path
       id="Tracé_796"
       data-name="Tracé 796"
       d="m 133.737,107.54 v 16.524 h -11.016 v 9.18 h -5.508 v 5.508 H 111.7 v 5.508 h -3.672 v 5.508 H 91.508 V 144.26 H 86 V 85.508 h 5.508 V 80 h 16.524 v 5.508 H 111.7 V 91.2 l 5.508,-0.184 v 5.508 h 5.508 v 5.508 h 5.508 v 5.508 z"
       inkscape:connector-curvature="0"
       style="fill:#c97005" />
  </g>
  <g
     id="fleche-2"
     data-name="fleche"
     transform="rotate(-90,28.655,100.896)">
    <path
       id="Tracé_795-2"
       data-name="Tracé 795"
       d="m 106,104 v 5.508 h 5.508 V 104 Z"
       transform="translate(12.349,14.91)"
       inkscape:connector-curvature="0"
       style="fill:#eee128" />
    <path
       id="Tracé_796-2"
       data-name="Tracé 796"
       d="m 129.366,104.573 v 14.744 h -10.008 v 8.191 h -5 v 4.915 h -5 v 4.915 h -3.336 v 4.915 H 91 v -4.915 H 86 V 84.915 h 5 V 80 h 15.011 v 4.915 h 3.336 v 5.078 l 5,-0.164 v 4.915 h 5 v 4.915 h 5 v 4.915 z"
       inkscape:connector-curvature="0"
       style="fill:#eee128" />
  </g>
</svg>
